<?xml version="1.0" encoding="utf-8"?>
<!-- Generator: Adobe Illustrator 22.0.0, SVG Export Plug-In . SVG Version: 6.00 Build 0)  -->
<svg version="1.1" id="Layer_1" xmlns="http://www.w3.org/2000/svg" xmlns:xlink="http://www.w3.org/1999/xlink" x="0px" y="0px"
	 viewBox="0 0 1400 1400" style="enable-background:new 0 0 1400 1400;" xml:space="preserve">
<style type="text/css">
	.st0{fill:#E84934;}
	.st1{fill:#C12417;}
	.st2{fill:#EACD3D;}
	.st3{fill:#0C616D;}
	.st4{fill:#074A4F;}
	.st5{fill:#42B8C1;}
	.st6{fill:#FFFFFF;}
	.st7{opacity:0.59;fill:#E8A33F;}
	.st8{fill:#C4611E;}
	.st9{fill:#EFEDED;}
	.st10{fill:#E2DCDC;}
	.st11{fill:#BAAEAE;}
	.st12{fill:#BA2217;}
	.st13{fill:#353333;}
	.st14{fill:#5E5B5B;}
	.st15{fill:#1F9699;}
	.st16{opacity:0.73;fill:#FFFFFF;}
</style>
<g>
	<g>
		<rect x="67.1" y="77.9" class="st0" width="71.4" height="309.6"/>
		<rect x="281.5" y="213.3" class="st0" width="71.4" height="174.2"/>
		<rect x="281.5" y="213.3" class="st1" width="13.2" height="174.2"/>
		<rect x="281.5" y="234.2" class="st1" width="71.4" height="20.9"/>
		<rect x="281.5" y="338.6" class="st1" width="71.4" height="20.9"/>
		<rect x="210" y="111" class="st2" width="71.4" height="276.4"/>
		<rect x="67.1" y="98.7" class="st2" width="71.4" height="37.2"/>
		<rect x="67.1" y="324.2" class="st2" width="71.4" height="37.2"/>
		<rect x="138.6" y="150.8" class="st3" width="71.4" height="236.7"/>
		<rect x="138.6" y="150.8" class="st4" width="14.3" height="236.7"/>
		<g>
			<rect x="138.6" y="166.8" class="st5" width="71.4" height="12.6"/>
			<rect x="138.6" y="190.9" class="st5" width="71.4" height="12.6"/>
		</g>
		<g>
			<rect x="138.6" y="324.8" class="st5" width="71.4" height="12.6"/>
			<rect x="138.6" y="348.9" class="st5" width="71.4" height="12.6"/>
		</g>
		<rect x="352.7" y="136" class="st3" width="63.4" height="251.5"/>
		<rect x="352.7" y="136" class="st4" width="12.7" height="251.5"/>
		<polygon class="st2" points="352.7,152.9 352.7,162 352.7,166.4 352.7,192 416.1,192 416.1,166.4 416.1,162 416.1,152.9 		"/>
		<polygon class="st2" points="352.7,328.6 352.7,337.7 352.7,342.1 352.7,367.7 416.1,367.7 416.1,342.1 416.1,337.7 416.1,328.6 
					"/>
		<rect x="85.8" y="168.2" class="st6" width="33" height="133"/>
		<rect x="210" y="111" class="st7" width="13.2" height="276.4"/>
		<rect x="210" y="293.5" class="st8" width="71.4" height="20.9"/>
		<rect x="232" y="328.7" class="st8" width="33" height="41.8"/>
		<rect x="210" y="138.5" class="st8" width="71.4" height="18.1"/>
		<rect x="210" y="180.3" class="st8" width="71.4" height="18.1"/>
	</g>
	<g>
		<rect x="516.9" y="130.8" class="st3" width="352.5" height="219.9"/>
		<path class="st9" d="M690.4,120.9L690.4,120.9c-51.4-22.1-109.5-22.5-161.2-1l-2.4,1v216l1.2-0.5c51.5-21.8,109.6-21.8,161.1,0
			l1.2,0.5V120.9z"/>
		<g>
			<path class="st10" d="M675.3,139.3c-41.9-18-89.3-18.3-131.4-0.8l-1.9,0.8v12.5l1.9-0.8c42.1-17.5,89.5-17.2,131.4,0.8l0,0V139.3
				L675.3,139.3z"/>
			<path class="st10" d="M675.3,169.9c-41.9-18-89.3-18.3-131.4-0.8l-1.9,0.8v12.5l1.9-0.8c42.1-17.5,89.5-17.2,131.4,0.8l0,0V169.9
				L675.3,169.9z"/>
			<path class="st10" d="M675.3,200.5c-41.9-18-89.3-18.3-131.4-0.8l-1.9,0.8V213l1.9-0.8c42.1-17.5,89.5-17.2,131.4,0.8l0,0V200.5
				L675.3,200.5z"/>
			<path class="st10" d="M675.3,231.1c-41.9-18-89.3-18.3-131.4-0.8l-1.9,0.8v12.5l1.9-0.8c42.1-17.5,89.5-17.2,131.4,0.8l0,0V231.1
				L675.3,231.1z"/>
			<path class="st10" d="M675.3,261.8c-41.9-18-89.3-18.3-131.4-0.8l-1.9,0.8v12.5l1.9-0.8c42.1-17.5,89.5-17.2,131.4,0.8l0,0V261.8
				L675.3,261.8z"/>
			<path class="st10" d="M675.3,292.4c-41.9-18-89.3-18.3-131.4-0.8l-1.9,0.8v12.5l1.9-0.8c42.1-17.5,89.5-17.2,131.4,0.8l0,0V292.4
				L675.3,292.4z"/>
		</g>
		<path class="st10" d="M853.2,120.9L853.2,120.9c-51.4-22.1-109.5-22.5-161.2-1l-2.4,1v216l1.2-0.5c51.5-21.8,109.6-21.8,161.1,0
			l1.2,0.5V120.9z"/>
		<polygon class="st3" points="730.5,341.7 647.7,341.7 657,361.3 721.2,361.3 		"/>
		<g>
			<path class="st11" d="M837.3,139.3c-41.9-18-89.3-18.3-131.4-0.8l-1.9,0.8v12.5l1.9-0.8c42.1-17.5,89.5-17.2,131.4,0.8l0,0V139.3
				L837.3,139.3z"/>
			<path class="st11" d="M837.3,169.9c-41.9-18-89.3-18.3-131.4-0.8l-1.9,0.8v12.5l1.9-0.8c42.1-17.5,89.5-17.2,131.4,0.8l0,0V169.9
				L837.3,169.9z"/>
			<path class="st11" d="M837.3,200.5c-41.9-18-89.3-18.3-131.4-0.8l-1.9,0.8V213l1.9-0.8c42.1-17.5,89.5-17.2,131.4,0.8l0,0V200.5
				L837.3,200.5z"/>
			<path class="st11" d="M837.3,231.1c-41.9-18-89.3-18.3-131.4-0.8l-1.9,0.8v12.5l1.9-0.8c42.1-17.5,89.5-17.2,131.4,0.8l0,0V231.1
				L837.3,231.1z"/>
			<path class="st11" d="M837.3,261.8c-41.9-18-89.3-18.3-131.4-0.8l-1.9,0.8v12.5l1.9-0.8c42.1-17.5,89.5-17.2,131.4,0.8l0,0V261.8
				L837.3,261.8z"/>
			<path class="st11" d="M837.3,292.4c-41.9-18-89.3-18.3-131.4-0.8l-1.9,0.8v12.5l1.9-0.8c42.1-17.5,89.5-17.2,131.4,0.8l0,0V292.4
				L837.3,292.4z"/>
		</g>
	</g>
	<g>
		<g>
			<g>
				<polygon class="st5" points="1322.5,233.8 1134.4,343.2 968.8,247.6 1156.9,138.2 				"/>
			</g>
			<polygon class="st6" points="1207.7,260.7 1264.5,227.7 1177.5,177.5 1120.7,210.5 			"/>
			<polygon class="st3" points="1181.2,152.3 1156.9,138.2 968.8,247.6 993.1,261.6 			"/>
			<g>
				<polygon class="st9" points="1322.5,233.8 1322.3,272.2 1134.2,381.5 1134.4,343.2 				"/>
			</g>
			<g>
				<polygon class="st9" points="1322.5,233.8 1322.3,272.2 1134.2,381.5 1134.4,343.2 				"/>
			</g>
			<g>
				<polygon class="st12" points="1322.3,233.9 1322.3,238.7 1134.3,347.9 1134.4,343.2 				"/>
			</g>
			<g>
				<polygon class="st3" points="1322.3,233.9 1322.3,247 1134.3,356.2 1134.4,343.2 				"/>
			</g>
			<polygon class="st3" points="1322.3,262.7 1138.5,369.5 1134.2,372 1134.2,381.5 1322.3,272.2 1322.5,233.8 1322.4,233.8 			"/>
			<g>
				<polygon class="st3" points="994.1,274.8 1134.3,356.6 1134.4,343.2 968.8,247.6 968.6,285.9 1134.2,381.5 1134.2,372 
					994,290.3 				"/>
				<polygon class="st10" points="994,274.6 994,290.2 1134.2,372 1134.3,356.6 				"/>
			</g>
		</g>
		<g>
			<g>
				<polygon class="st0" points="1320.6,179.5 1132.5,288.8 966.9,193.2 1155,83.9 				"/>
			</g>
			<polygon class="st6" points="1205.8,206.4 1262.6,173.4 1175.7,123.2 1118.9,156.2 			"/>
			<polygon class="st12" points="1179.3,97.9 1155,83.9 966.9,193.2 991.2,207.2 			"/>
			<g>
				<polygon class="st9" points="1320.6,179.5 1320.4,217.8 1132.3,327.1 1132.5,288.8 				"/>
			</g>
			<g>
				<polygon class="st9" points="1320.6,179.5 1320.4,217.8 1132.3,327.1 1132.5,288.8 				"/>
			</g>
			<g>
				<polygon class="st12" points="1320.4,179.6 1320.4,184.4 1132.5,293.6 1132.5,288.8 				"/>
			</g>
			<g>
				<polygon class="st12" points="1320.4,179.6 1320.4,192.6 1132.5,301.9 1132.5,288.8 				"/>
			</g>
			<polygon class="st12" points="1320.4,208.4 1136.7,315.2 1132.3,317.7 1132.3,327.1 1320.4,217.8 1320.6,179.5 1320.6,179.5 			
				"/>
			<g>
				<polygon class="st12" points="992.3,220.5 1132.5,302.2 1132.5,288.8 966.9,193.2 966.7,231.5 1132.3,327.1 1132.3,317.7 
					992.1,236 				"/>
				<polygon class="st10" points="992.1,220.3 992.1,235.8 1132.3,317.7 1132.5,302.2 				"/>
			</g>
		</g>
	</g>
	<g>
		<path class="st9" d="M241.2,586.8c0,0-2.9-19-16.1-23.9l-124.1-26.6c-7.9-1.7-15.4,4.3-15.4,12.4v141.5l106.5,2.2L241.2,586.8z"/>
		<path class="st10" d="M240.8,586.8c0,0,2.9-19,16.1-23.9L381,536.3c7.9-1.7,15.4,4.3,15.4,12.4v141.5l-106.5,2.2L240.8,586.8z"/>
		<polygon class="st5" points="219.6,580.6 72.3,550.9 72.3,802.6 219.6,832.3 		"/>
		<polygon class="st5" points="263.7,580.6 410.9,550.9 410.9,802.6 263.7,832.3 		"/>
		<polygon class="st6" points="390.3,666 390.3,590.4 284.4,611.8 284.4,687.4 		"/>
		<g>
			<path class="st3" d="M263.9,580.6h-44.4c-1.5-1.5,0,251.7,0,251.7h44.4V580.6z"/>
		</g>
	</g>
	<g>
		<polygon class="st3" points="855.5,534.8 693.1,625.5 530.7,534.8 508.2,551.4 508.2,782.3 669.7,822.3 692.9,822.3 693.3,822.3 
			716.5,822.3 878,782.3 878,551.4 		"/>
		<polygon class="st10" points="845.4,543.7 693.1,628.8 540.8,543.7 519.6,559.3 519.6,775.8 671.2,813.4 692.9,813.4 693.3,813.4 
			715,813.4 866.6,775.8 866.6,559.3 		"/>
		<polygon class="st3" points="731.8,815.6 656,815.6 664.5,833.5 723.2,833.5 		"/>
		<path class="st9" d="M667.9,569.4L667.9,569.4l-127.1-25.6v217.2l127.1,25.7c0,0,24.2,6.4,25.3,21.1V627.6v-36v-1.1
			C692.1,575.7,667.9,569.4,667.9,569.4z"/>
		<g>
			<polygon class="st10" points="666.6,584.9 562,563.8 562,577.2 666.6,598.3 			"/>
			<polygon class="st10" points="666.6,619.2 562,598.1 562,611.4 666.6,632.6 			"/>
			<polygon class="st10" points="666.6,653.5 562,632.3 562,645.7 666.6,666.8 			"/>
			<polygon class="st10" points="666.6,687.7 562,666.6 562,680 666.6,701.1 			"/>
			<polygon class="st10" points="666.6,722 562,700.9 562,714.3 666.6,735.4 			"/>
			<polygon class="st10" points="666.6,756.3 562,735.2 562,748.5 666.6,769.7 			"/>
		</g>
		<path class="st10" d="M718.4,569.4L718.4,569.4l127.1-25.6v217.2l-127.1,25.7c0,0-24.2,6.4-25.3,21.1V627.6v-36v-1.1
			C694.2,575.7,718.4,569.4,718.4,569.4z"/>
		<g>
			<polygon class="st11" points="720,584.9 824.6,563.8 824.6,577.2 720,598.3 			"/>
			<polygon class="st11" points="720,619.2 824.6,598.1 824.6,611.4 720,632.6 			"/>
			<polygon class="st11" points="720,653.5 824.6,632.3 824.6,645.7 720,666.8 			"/>
			<polygon class="st11" points="720,687.7 824.6,666.6 824.6,680 720,701.1 			"/>
			<polygon class="st11" points="720,722 824.6,700.9 824.6,714.3 720,735.4 			"/>
			<polygon class="st11" points="720,756.3 824.6,735.2 824.6,748.5 720,769.7 			"/>
		</g>
	</g>
	<g>
		<path class="st10" d="M1249.9,532.2h-224v303.9h224c15.3,0,27.7-12.4,27.7-27.7V560C1277.6,544.6,1265.2,532.2,1249.9,532.2z"/>
		<path class="st2" d="M1235.6,532.2h-224v303.9h224c15.3,0,27.7-12.4,27.7-27.7V560C1263.3,544.6,1250.9,532.2,1235.6,532.2z"/>
		<rect x="1011.5" y="532.2" class="st8" width="30" height="303.9"/>
		<rect x="1075.7" y="566.1" class="st6" width="143.1" height="79.8"/>
		<rect x="1105.2" y="727.9" class="st8" width="82.5" height="13.8"/>
		<rect x="1075.7" y="760.9" class="st8" width="143.1" height="13.8"/>
		<rect x="1075.7" y="798" class="st8" width="143.1" height="13.8"/>
	</g>
	<g>
		<g>
			<g>
				<polygon class="st0" points="887.4,1160 680.9,1280 499,1175 705.6,1055 				"/>
			</g>
			<polygon class="st6" points="761.4,1189.5 823.8,1153.2 728.3,1098.1 665.9,1134.4 			"/>
			<polygon class="st12" points="732.3,1070.4 705.6,1055 499,1175 525.7,1190.4 			"/>
			<g>
				<polygon class="st9" points="887.4,1160 887.2,1202.1 680.6,1322.1 680.9,1280 				"/>
			</g>
			<g>
				<polygon class="st9" points="887.4,1160 887.2,1202.1 680.6,1322.1 680.9,1280 				"/>
			</g>
			<g>
				<polygon class="st12" points="887.2,1160.1 887.2,1165.3 680.8,1285.2 680.9,1280 				"/>
			</g>
			<g>
				<polygon class="st12" points="887.2,1160.1 887.2,1174.4 680.8,1294.3 680.9,1280 				"/>
			</g>
			<polygon class="st12" points="887.2,1191.7 685.5,1309 680.7,1311.7 680.6,1322.1 887.2,1202.1 887.4,1160 887.4,1160 			"/>
			<g>
				<polygon class="st12" points="526.9,1205 680.8,1294.7 680.9,1280 499,1175 498.8,1217.1 680.6,1322.1 680.7,1311.7 526.7,1222 
									"/>
				<polygon class="st10" points="526.7,1204.7 526.7,1221.8 680.7,1311.7 680.8,1294.7 				"/>
			</g>
		</g>
		<g>
			<polygon class="st13" points="842.4,1171.4 830.7,1171.4 830.7,1096.1 842.4,1085.9 			"/>
			<path class="st2" d="M836.5,1156.2L836.5,1156.2c-7.2,0-13.1,5.9-13.1,13.1v22h26.1v-22C849.6,1162.1,843.8,1156.2,836.5,1156.2z
				"/>
			<polygon class="st14" points="864.9,1088.5 697.1,1187.5 521.3,1088.5 693.1,975 			"/>
			<path class="st13" d="M799.1,1087c-67.6-38.9-151.2-37.4-217.4,3.8h0v5.8v86.6v5.8l6.6,3.8c67.6,38.9,151.2,37.4,217.4-3.8h0
				v-5.8v-86.6v-5.8L799.1,1087z"/>
		</g>
	</g>
	<g>
		<g>
			<path class="st9" d="M106.6,1008.4c-5.1,0-9.3,4.2-9.3,9.3v46c0,5.1,4.2,9.3,9.3,9.3H378v-64.7H106.6z"/>
			<path class="st2" d="M106.6,1015.2H385c6.1,0,11.1-5,11.1-11.1l0,0c0-6.1-5-11.1-11.1-11.1H93.9c-13.6,0-24.6,11-24.6,24.6v46
				c0,13.6,11,24.6,24.6,24.6H385c6.1,0,11.1-5,11.1-11.1v0c0-6.1-5-11.1-11.1-11.1H106.6c-1.4,0-2.5-1.1-2.5-2.5v-46
				C104.1,1016.3,105.2,1015.2,106.6,1015.2z"/>
		</g>
		<g>
			<path class="st9" d="M106.6,1198.3c-5.1,0-9.3,4.2-9.3,9.3v46c0,5.1,4.2,9.3,9.3,9.3H378v-64.7H106.6z"/>
			<path class="st5" d="M106.6,1205.1H385c6.1,0,11.1-5,11.1-11.1l0,0c0-6.1-5-11.1-11.1-11.1H93.9c-13.6,0-24.6,11-24.6,24.6v46
				c0,13.6,11,24.6,24.6,24.6H385c6.1,0,11.1-5,11.1-11.1l0,0c0-6.1-5-11.1-11.1-11.1H106.6c-1.4,0-2.5-1.1-2.5-2.5v-46
				C104.1,1206.2,105.2,1205.1,106.6,1205.1z"/>
			<path class="st5" d="M106.6,1205.1H385c6.1,0,11.1-5,11.1-11.1l0,0c0-6.1-5-11.1-11.1-11.1H93.9c-13.6,0-24.6,11-24.6,24.6v46
				c0,13.6,11,24.6,24.6,24.6H385c6.1,0,11.1-5,11.1-11.1l0,0c0-6.1-5-11.1-11.1-11.1H106.6c-1.4,0-2.5-1.1-2.5-2.5v-46
				C104.1,1206.2,105.2,1205.1,106.6,1205.1z"/>
		</g>
		<path class="st15" d="M395.2,1189.7c-1.7-4-5.6-6.7-10.2-6.7H93.9c-6.5,0-12.5,2.6-16.9,6.7H395.2z"/>
		<g>
			<path class="st9" d="M124.5,1102.9c-5.1,0-9.3,4.2-9.3,9.3v46c0,5.1,4.2,9.3,9.3,9.3H396v-64.7H124.5z"/>
			<path class="st0" d="M124.5,1109.7h278.4c6.1,0,11.1-5,11.1-11.1l0,0c0-6.1-5-11.1-11.1-11.1H111.9c-13.6,0-24.6,11-24.6,24.6v46
				c0,13.6,11,24.6,24.6,24.6h291.1c6.1,0,11.1-5,11.1-11.1l0,0c0-6.1-5-11.1-11.1-11.1H124.5c-1.4,0-2.5-1.1-2.5-2.5v-46
				C122,1110.8,123.1,1109.7,124.5,1109.7z"/>
		</g>
		<path class="st12" d="M413.9,1097.7c-0.5-5.6-5.2-10.1-11-10.1H111.9c-8.2,0-15.4,4-19.9,10.1H413.9z"/>
	</g>
	<g>
		<rect x="956.3" y="1034" class="st12" width="376.6" height="234.9"/>
		<path class="st9" d="M1141.7,1023.4L1141.7,1023.4c-54.9-23.6-117-24-172.2-1.1l-2.6,1.1v230.7l1.3-0.5
			c55-23.3,117.1-23.3,172.1,0l1.3,0.5V1023.4z"/>
		<g>
			<path class="st10" d="M1125.6,1043c-44.8-19.3-95.4-19.6-140.4-0.9l-2.1,0.9v13.3l2.1-0.9c45-18.7,95.7-18.4,140.4,0.9h0
				L1125.6,1043L1125.6,1043z"/>
			<path class="st10" d="M1125.6,1075.8c-44.8-19.3-95.4-19.6-140.4-0.9l-2.1,0.9v13.3l2.1-0.9c45-18.7,95.7-18.4,140.4,0.9h0
				L1125.6,1075.8L1125.6,1075.8z"/>
			<path class="st10" d="M1125.6,1108.5c-44.8-19.3-95.4-19.6-140.4-0.9l-2.1,0.9v13.3l2.1-0.9c45-18.7,95.7-18.4,140.4,0.9h0
				L1125.6,1108.5L1125.6,1108.5z"/>
			<path class="st10" d="M1125.6,1141.2c-44.8-19.3-95.4-19.6-140.4-0.9l-2.1,0.9v13.3l2.1-0.9c45-18.7,95.7-18.4,140.4,0.9h0
				L1125.6,1141.2L1125.6,1141.2z"/>
			<path class="st10" d="M1125.6,1173.9c-44.8-19.3-95.4-19.6-140.4-0.9l-2.1,0.9v13.3l2.1-0.9c45-18.7,95.7-18.4,140.4,0.9h0
				L1125.6,1173.9L1125.6,1173.9z"/>
			<path class="st10" d="M1125.6,1206.6c-44.8-19.3-95.4-19.6-140.4-0.9l-2.1,0.9v13.3l2.1-0.9c45-18.7,95.7-18.4,140.4,0.9h0
				L1125.6,1206.6L1125.6,1206.6z"/>
		</g>
		<path class="st10" d="M1315.6,1023.4L1315.6,1023.4c-54.9-23.6-117-24-172.2-1.1l-2.6,1.1v230.7l1.3-0.5
			c55-23.3,117.1-23.3,172.1,0l1.3,0.5V1023.4z"/>
		<polygon class="st12" points="1184.5,1259.3 1096.1,1259.3 1106,1280.3 1174.6,1280.3 		"/>
		<g>
			<path class="st11" d="M1298.6,1043c-44.8-19.3-95.4-19.6-140.4-0.9l-2.1,0.9v13.3l2.1-0.9c45-18.7,95.7-18.4,140.4,0.9l0,0V1043
				L1298.6,1043z"/>
			<path class="st11" d="M1298.6,1075.8c-44.8-19.3-95.4-19.6-140.4-0.9l-2.1,0.9v13.3l2.1-0.9c45-18.7,95.7-18.4,140.4,0.9l0,0
				V1075.8L1298.6,1075.8z"/>
			<path class="st11" d="M1298.6,1108.5c-44.8-19.3-95.4-19.6-140.4-0.9l-2.1,0.9v13.3l2.1-0.9c45-18.7,95.7-18.4,140.4,0.9l0,0
				V1108.5L1298.6,1108.5z"/>
			<path class="st11" d="M1298.6,1141.2c-44.8-19.3-95.4-19.6-140.4-0.9l-2.1,0.9v13.3l2.1-0.9c45-18.7,95.7-18.4,140.4,0.9l0,0
				V1141.2L1298.6,1141.2z"/>
			<path class="st11" d="M1298.6,1173.9c-44.8-19.3-95.4-19.6-140.4-0.9l-2.1,0.9v13.3l2.1-0.9c45-18.7,95.7-18.4,140.4,0.9l0,0
				V1173.9L1298.6,1173.9z"/>
			<path class="st11" d="M1298.6,1206.6c-44.8-19.3-95.4-19.6-140.4-0.9l-2.1,0.9v13.3l2.1-0.9c45-18.7,95.7-18.4,140.4,0.9l0,0
				V1206.6L1298.6,1206.6z"/>
		</g>
		<g>
			<g>
				<path class="st3" d="M1301.4,1080.2c-7.3-44-48.9-73.7-92.9-66.4c-44,7.3-73.7,48.9-66.4,92.9s48.9,73.7,92.9,66.4
					C1278.9,1165.7,1308.7,1124.1,1301.4,1080.2z M1231,1149.1c-30.7,5.1-59.8-15.7-64.9-46.4c-5.1-30.7,15.7-59.8,46.4-64.9
					c30.7-5.1,59.8,15.7,64.9,46.4C1282.5,1114.9,1261.7,1144,1231,1149.1z"/>
				
					<ellipse transform="matrix(0.9624 -0.2716 0.2716 0.9624 -251.0734 372.9965)" class="st16" cx="1221.7" cy="1093.4" rx="56.4" ry="56.4"/>
			</g>
			<path class="st3" d="M1255.2,1187.6l-34.7,5.8c-6.4,1.1-12.4-3.3-13.5-9.7l-2.6-15.9l57.9-9.6l2.6,15.9
				C1265.9,1180.5,1261.6,1186.5,1255.2,1187.6z"/>
			
				<rect x="1231" y="1185.9" transform="matrix(0.9865 -0.1637 0.1637 0.9865 -183.3519 220.0439)" class="st3" width="24.2" height="72.6"/>
			<path class="st3" d="M1244.2,1220.2l-2.8,0.5c-10.7,1.8-18,11.9-16.2,22.7l8.7,52.6c1.8,10.7,11.9,18,22.7,16.2l2.8-0.5
				c10.7-1.8,18-11.9,16.2-22.7l-8.7-52.6C1265.1,1225.7,1255,1218.4,1244.2,1220.2z"/>
		</g>
	</g>
</g>
</svg>
